<svg width="23" height="24" fill="none" xmlns="http://www.w3.org/2000/svg"><g clip-path="url(#clip0)" fill="#101010"><path d="M7.337 18.668c-1.326 0-2.401 1.122-2.401 2.505 0 1.384 1.075 2.506 2.401 2.506 1.326 0 2.401-1.122 2.401-2.506 0-1.383-1.075-2.505-2.401-2.505zm0 3.897c-.737 0-1.334-.623-1.334-1.392 0-.768.597-1.392 1.334-1.392.737 0 1.334.624 1.334 1.392 0 .77-.597 1.392-1.334 1.392zm10.138-3.897c-1.326 0-2.4 1.122-2.4 2.505 0 1.384 1.074 2.506 2.4 2.506 1.326 0 2.401-1.122 2.401-2.506 0-1.383-1.075-2.505-2.4-2.505zm0 3.897c-.737 0-1.334-.623-1.334-1.392 0-.768.598-1.392 1.334-1.392.737 0 1.334.624 1.334 1.392 0 .77-.597 1.392-1.334 1.392zm5.416-18.513a.657.657 0 00-.427-.223L5.096 3.58l-.48-1.532C4.277 1.024 3.359.333 2.32.321H.534A.546.546 0 000 .878c0 .308.239.557.534.557H2.32c.58.013 1.091.402 1.28.974l3.39 10.663-.268.64c-.297.8-.208 1.702.24 2.422a2.46 2.46 0 002.001 1.17h10.379c.295 0 .534-.25.534-.557a.545.545 0 00-.534-.557H8.964a1.35 1.35 0 01-1.12-.668 1.59 1.59 0 01-.134-1.337l.214-.5 11.232-1.226c1.234-.141 2.249-1.078 2.535-2.338l1.28-5.596a.49.49 0 00-.08-.473zm-2.24 5.818c-.174.812-.834 1.41-1.628 1.476l-11.1 1.197-2.48-7.85 16.354.25L20.65 9.87z"/></g><defs><clipPath id="clip0"><path fill="#fff" d="M0 0h23v24H0z"/></clipPath></defs></svg>