<svg width="20" height="20" fill="none" xmlns="http://www.w3.org/2000/svg"><path fill-rule="evenodd" clip-rule="evenodd" d="M10 0C7.284 0 6.944.011 5.877.06 4.813.11 4.086.278 3.45.525a4.901 4.901 0 00-1.772 1.153A4.902 4.902 0 00.525 3.45C.278 4.086.109 4.813.06 5.877.011 6.944 0 7.284 0 10s.011 3.056.06 4.123c.049 1.064.218 1.791.465 2.427a4.902 4.902 0 001.153 1.772 4.901 4.901 0 001.772 1.153c.636.247 1.363.416 2.427.465 1.067.048 1.407.06 4.123.06s3.056-.012 4.123-.06c1.064-.049 1.791-.218 2.427-.465a4.901 4.901 0 001.771-1.153 4.902 4.902 0 001.154-1.772c.247-.636.416-1.363.465-2.427.048-1.067.06-1.407.06-4.123s-.012-3.056-.06-4.123c-.049-1.064-.218-1.791-.465-2.427a4.902 4.902 0 00-1.154-1.772 4.901 4.901 0 00-1.77-1.153C15.913.278 15.186.109 14.122.06 13.056.011 12.716 0 10 0zm0 1.802c2.67 0 2.986.01 4.04.058.976.045 1.505.207 1.858.344.466.182.8.399 1.15.748.35.35.566.683.748 1.15.136.353.3.882.344 1.857.048 1.055.058 1.37.058 4.041 0 2.67-.01 2.986-.058 4.04-.045.976-.208 1.505-.345 1.858-.18.466-.398.8-.748 1.15-.35.35-.683.566-1.15.748-.352.137-.881.3-1.856.344-1.055.048-1.37.058-4.041.058-2.67 0-2.987-.01-4.04-.058-.976-.044-1.505-.207-1.858-.344a3.098 3.098 0 01-1.15-.748 3.1 3.1 0 01-.748-1.15c-.136-.353-.3-.882-.344-1.857-.048-1.055-.058-1.37-.058-4.041 0-2.67.01-2.986.058-4.04.045-.976.208-1.505.344-1.858a3.1 3.1 0 01.748-1.15c.35-.35.683-.566 1.15-.748.353-.137.882-.3 1.857-.344 1.055-.048 1.37-.058 4.041-.058z" fill="#EBCA71"/><path fill-rule="evenodd" clip-rule="evenodd" d="M10 4.615a5.385 5.385 0 100 10.77 5.385 5.385 0 000-10.77zm0 8.846a3.461 3.461 0 110-6.922 3.461 3.461 0 010 6.922zm6.692-8.769a1.23 1.23 0 11-2.461 0 1.23 1.23 0 012.461 0z" fill="#EBCA71"/></svg>