<svg width="24" height="24" fill="none" xmlns="http://www.w3.org/2000/svg"><g clip-path="url(#clip0)"><path d="M18.294 17.464a10.431 10.431 0 002.654-6.958c0-5.778-4.702-10.474-10.474-10.474C4.696.032 0 4.734 0 10.506S4.702 20.98 10.474 20.98a10.43 10.43 0 006.958-2.654l5.52 5.521a.6.6 0 00.435.178.609.609 0 00.434-1.04l-5.527-5.521zM1.217 10.506c0-5.1 4.151-9.251 9.25-9.251 5.1 0 9.251 4.152 9.251 9.25 0 5.1-4.151 9.252-9.25 9.252-5.1 0-9.251-4.152-9.251-9.251z" fill="#101010"/></g><defs><clipPath id="clip0"><path fill="#fff" d="M0 0h24v24H0z"/></clipPath></defs></svg>