<svg width="19" height="12" fill="none" xmlns="http://www.w3.org/2000/svg"><path fill-rule="evenodd" clip-rule="evenodd" d="M9.283 11.353h1.134s.343-.04.518-.236c.161-.18.156-.52.156-.52s-.023-1.585.684-1.818c.696-.23 1.59 1.532 2.538 2.21.716.513 1.26.4 1.26.4l2.535-.036s1.325-.085.696-1.171c-.051-.09-.366-.804-1.884-2.272-1.589-1.537-1.376-1.288.538-3.946 1.166-1.62 1.632-2.607 1.486-3.03-.139-.404-.996-.297-.996-.297l-2.853.018s-.212-.03-.368.067c-.153.096-.252.32-.252.32s-.452 1.252-1.053 2.317c-1.271 2.249-1.779 2.367-1.987 2.228-.483-.326-.362-1.307-.362-2.004 0-2.179.317-3.087-.618-3.323-.31-.078-.538-.13-1.332-.138-1.017-.01-1.879.004-2.366.253-.325.166-.576.535-.423.556.189.026.615.12.842.44.292.415.282 1.346.282 1.346s.168 2.565-.392 2.883c-.385.219-.912-.228-2.045-2.267-.58-1.045-1.018-2.2-1.018-2.2s-.084-.215-.235-.33C3.585.662 3.33.617 3.33.617L.618.637S.211.649.062.833c-.133.164-.01.503-.01.503s2.122 5.175 4.525 7.782c2.204 2.392 4.706 2.235 4.706 2.235z" fill="#EBCA71"/></svg>