<svg width="20" height="14" fill="none" xmlns="http://www.w3.org/2000/svg"><path fill-rule="evenodd" clip-rule="evenodd" d="M19.8 3.035s-.195-1.378-.795-1.986c-.76-.796-1.613-.8-2.004-.846C14.203 0 10.004 0 10.004 0h-.009S5.797 0 3 .203c-.391.046-1.244.05-2.004.846C.395 1.657.2 3.035.2 3.035S0 4.653 0 6.27v1.451c0 1.619.2 3.237.2 3.237s.195 1.378.795 1.985c.76.797 1.76.771 2.205.855C4.8 13.953 10 14 10 14s4.203-.007 7.001-.209c.391-.046 1.244-.05 2.004-.847.6-.607.795-1.985.795-1.985s.2-1.618.2-3.237v-1.45c0-1.619-.2-3.237-.2-3.237zM7.935 9.627l-.001-5.619 5.405 2.82-5.404 2.8z" fill="#EBCA71"/></svg>